# xmcd CD database file generated by Grip 3.2.0
# 
# Track frame offsets:
#       150
#       8255
#       12475
#       20560
#       58982
#       68755
#       108335
#       133092
#       157375
#       166227
#       171070
#       185492
#       206005
#       218882
#       236407
# 
# Disc length: 3597 seconds
# 
# Revision: 1
# Processed by: cddbd v1.5.2PL0 Copyright (c) Steve Scherf et al.
# Submitted via: Grip 3.2.0
# 
DISCID=cf0e0b0f
DTITLE=Various Artist - Geschichte Der Pop Musik CD 31
DYEAR=1998
DGENRE=Jazz
TTITLE0=Einleitung
TTITLE1=Im Dezember 1960 ...
TTITLE2=Louis Amstrong and The Dukes of Dixeland - South
TTITLE3=South - Ein Stück von der LP ...
TTITLE4=Ornette Coleman - Free
TTITLE5=Komponist Allerdings ...
TTITLE6=Ornette Coleman Double Quartet - Free Jazz
TTITLE7=Tatsächlich gleichberechtigte Improvisation
TTITLE8=Horace Silver - Opus De Funk
TTITLE9=Opus De Funk, 1953 ...
TTITLE10=Art Blakey - Moanin'
TTITLE11=Moanin', Ein Standard-Titel ...
TTITLE12=John Coltrane - My Favorite Things
TTITLE13=Während Der heftigsten Debatten ...
TTITLE14=Max Roach - Freedom Day
EXTD=YEAR: 1998
EXTT0=
EXTT1=
EXTT2=
EXTT3=
EXTT4=
EXTT5=
EXTT6=
EXTT7=
EXTT8=
EXTT9=
EXTT10=
EXTT11=
EXTT12=
EXTT13=
EXTT14=
PLAYORDER=
